<?xml version="1.0" encoding="UTF-8" standalone="no"?>
<!DOCTYPE svg PUBLIC "-//W3C//DTD SVG 1.1//EN" "http://www.w3.org/Graphics/SVG/1.1/DTD/svg11.dtd">
<svg width="100%" height="100%" viewBox="0 0 1335 747" version="1.1" xmlns="http://www.w3.org/2000/svg" xmlns:xlink="http://www.w3.org/1999/xlink" xml:space="preserve" xmlns:serif="http://www.serif.com/" style="fill-rule:evenodd;clip-rule:evenodd;stroke-linejoin:round;stroke-miterlimit:2;">
    <g id="Artboard1" transform="matrix(0.651499,0,0,0.486296,0,0)">
        <rect x="0" y="0" width="2048" height="1536" style="fill:none;"/>
        <g transform="matrix(2.01733,0,0,2.70265,38.0199,-680.385)">
            <g transform="matrix(6.12323e-17,1,-1,6.12323e-17,1015.19,51.5508)">
                <path d="M433.22,70.91C434.03,73.89 432.06,75.13 430.4,77.15C430.12,82.41 430.24,87.73 430.22,93C430.19,124.32 430.26,155.65 430.17,186.97C429.38,186.72 428.58,186.49 427.78,186.28C427.64,149.98 427.86,113.69 427.64,77.4C426.36,76.81 424.8,76.41 423.73,75.49C422.54,73.63 421.92,71.3 423.35,69.39C425.63,65.69 432.18,66.43 433.22,70.91Z" style="fill:rgb(37,48,59);fill-rule:nonzero;"/>
            </g>
            <g transform="matrix(6.12323e-17,1,-1,6.12323e-17,1015.19,51.5508)">
                <path d="M525.48,68.72C531.59,67.46 537.93,67.45 544.03,68.76C559.88,72 573.58,83.85 578.66,99.27C585.1,116.46 579.91,137.04 566.1,149.13C557.06,158.01 544.6,162.29 531.99,161.39C517.05,160.5 503.16,152.49 495.22,139.75C489.96,130.8 487.48,120.35 488.69,110C490.34,90.29 506.03,72.51 525.48,68.72Z" style="fill:rgb(212,209,177);fill-rule:nonzero;"/>
            </g>
            <g transform="matrix(6.12323e-17,1,-1,6.12323e-17,1015.19,51.5508)">
                <path d="M404.03,183.99C412.17,182.8 419.91,184.32 427.78,186.28C428.58,186.49 429.38,186.72 430.17,186.97C445.06,192.32 456.91,204.5 462.4,219.27C465.48,228.26 466.53,238.33 464.55,247.68C464.01,250.13 463.54,252.61 463.04,255.07C461.62,261.23 457.6,266.93 453.75,271.84C447.67,279.52 439.4,284.8 430.31,288.25C429.47,288.54 428.61,288.81 427.75,289.05C411.28,293.26 393.41,291.48 379.1,281.9C369.58,275.13 361.85,266.15 357.98,255C354.94,246.57 354.86,237.85 355.6,229.01C357.81,214.84 366.02,202.92 377.16,194.18C385.14,188.32 394.15,184.91 404.03,183.99Z" style="fill:rgb(212,209,177);fill-rule:nonzero;"/>
            </g>
            <g transform="matrix(6.12323e-17,1,-1,6.12323e-17,1015.19,51.5508)">
                <path d="M534.76,214.36L537.25,214.41C537.24,221.36 537.18,228.31 537.29,235.26C572.37,236.27 607.77,246.74 637.48,265.51C650.01,273.64 661.73,283.13 672.08,293.92C692.81,314.75 708.72,340.27 717.83,368.24C723.61,386.49 727.16,405.84 727.35,425C728.16,464.01 713.72,504.32 686.72,532.74C683.13,536.56 679.12,539.83 675.4,543.53C673.3,558.11 669.3,572.52 664.12,586.3L663.57,586.33C669.14,572.73 672.6,558.09 675.01,543.61C652.29,561.38 623.83,571.96 594.99,573.03C575.22,574.05 555.47,571.15 537.33,563.04C537.01,610.89 537.34,658.76 537.16,706.62C546.18,704.31 554.83,700.3 563.37,696.65C569.14,694.29 574.35,691.08 579.78,688.06C598.71,677.25 615.37,663.12 629.93,646.95C633.26,642.94 636.32,638.74 639.99,635.01C639.78,634.4 639.56,633.79 639.33,633.19C640.05,634.13 640.82,635.03 641.62,635.9L640.44,635.03C636.75,638.91 633.52,643.14 630.13,647.27C609.06,671.06 582.53,689.83 552.96,701.52C547.77,703.52 542.85,705.77 537.37,706.92C537.23,709.95 537.21,712.97 537.21,716C537.21,805.45 537.19,894.9 537.23,984.35C536.38,984.49 535.54,984.62 534.7,984.77C534.76,892.54 534.68,800.29 534.73,708.06C528.18,709.98 521.54,711.4 514.82,712.63C513.26,713.77 512.35,715.04 510.22,714.57C504.59,713.76 499.61,715.35 493.95,715.6C486.62,716.56 479.36,716.14 472,716.24C457.88,716.01 444.1,713.69 430.29,710.93C430.15,758.62 430.29,806.31 430.2,854C430.14,858.36 430.73,862.29 429,866.44C427.13,862.65 427.86,859.05 427.76,855C427.75,806.58 427.83,758.15 427.72,709.74C421.7,708.88 416.42,706.78 410.62,704.91C381.12,694.34 354.21,677.1 332.09,654.91C319.64,642.91 308.85,629.14 299.93,614.32C285.56,590.46 277.04,563.79 273.14,536.28C271.26,526.88 271.72,517.52 271.33,508.01C271.75,500.64 271.2,493.32 272.35,486.07C275.59,456.25 285.01,426.86 300.35,401.04C306.61,389.68 314.85,379.11 323.18,369.2C327.89,364.45 331.63,359.09 336.97,354.99C349.41,343.16 363.42,333.15 378.42,324.83C386.33,320.87 393.89,316.66 402.26,313.7C410.46,310.71 418.98,307.31 427.68,306.23C427.84,300.5 427.77,294.78 427.75,289.05C428.61,288.81 429.47,288.54 430.31,288.25C430.17,293.76 430.24,299.26 430.09,304.76C435.31,304.81 439.85,303.19 444.99,302.56C450.94,301.8 457.06,300.55 463.01,300.66C469.37,300.71 475.62,299.91 481.99,300.44C488.19,300.92 493.98,300.26 500.08,301.31C505.79,302.28 511.52,302.84 517.17,304.17C523.06,305.38 528.76,307.19 534.69,308.15C534.79,285.94 534.74,263.72 534.74,241.5C516.15,241.46 496.77,243.38 479.04,249.18C473.6,250.93 468.23,252.69 463.04,255.07C463.54,252.61 464.01,250.13 464.55,247.68C472.45,243.88 481.27,241.76 489.78,239.77C504.49,236.21 519.52,235.03 534.63,235.2C534.75,228.25 534.7,221.3 534.76,214.36ZM537.19,241.56C537.24,276.98 537.24,312.59 537.26,348.01C548.47,346.24 559.7,345.55 570.98,347.17C588.38,349.47 605,356.39 618.82,367.21C636.77,381.07 651.16,400.93 656.99,422.99C663.29,444.2 661.39,467.94 653.53,488.49C646.38,506.31 634.31,522.41 618.74,533.74C606.39,543.04 591.85,549.04 576.76,552.15C563.64,554.81 550.35,554.55 537.18,552.5C537.18,553.72 537.18,554.95 537.19,556.17C551.07,562.27 565.83,565.97 581,566.59C608.15,568 636.01,561.58 659.2,547.22C665.37,543.32 671.41,538.99 676.59,533.84C676.6,528.89 676.61,523.97 677.25,519.06C678.55,504.76 677.16,491.17 675.53,477C673.45,464.08 670.75,451.31 666.59,438.88C656.91,411.77 644.94,386.22 624.61,365.37C618.23,359.15 612.16,352.33 605.13,346.88C596.41,339.8 587.41,332.81 577.61,327.29C565.18,320.18 551.82,313.76 537.85,310.37C540.51,310.59 542.91,311.08 545.42,311.98C560.45,317.19 574.82,324.44 588,333.35C599.61,341.57 610.66,350.18 620.45,360.55C636.11,375.4 647.77,393.42 656.52,413.06C660.35,420.32 662.93,428.02 665.84,435.67C670.83,449.43 673.85,463.53 676.11,477.96C677.46,490.65 679.06,503.37 677.95,516.13C677.14,521.99 677.34,527.8 677.08,533.69C693.8,517.98 705.9,497.75 713.17,476.07C719.75,457.32 721.58,436.58 720.65,416.83C718.67,384.46 708.39,352.75 690.3,325.78C678.7,309.14 665.48,294.04 649.29,281.71C633.43,268.98 615.31,259.3 596.09,252.7C577.16,246.01 557.27,242.14 537.19,241.56ZM427.83,306.6C417.53,308.09 407.14,312.3 397.45,316.04C377.28,324.64 358.52,336.26 342.09,350.79C337.78,355.05 332.88,358.33 329.14,363.17C318.19,375.11 307.92,388.1 300.08,402.32C290.5,418.36 283.52,436.1 278.66,454.11C274.91,469.29 272.14,484.4 272.11,500.08C271.22,509.11 272.33,517.98 272.38,527.02C274.26,544.66 277.93,562.1 283.69,578.89C286.33,586.4 289.57,593.51 292.85,600.75C305.39,626.01 323.42,647.92 344.89,666.1C358.24,677.94 373.08,687.29 388.95,695.36C401.33,701.28 414.26,706.58 427.76,709.37C427.74,674.61 427.82,639.85 427.73,605.09C405.52,602.97 384.47,592.11 370.35,574.78C358.4,560.07 351.88,540.95 352.4,522C352.32,507.73 356.43,493.8 363.57,481.51C368.85,472.79 375.82,465.24 383.66,458.77C394.79,450.05 408.74,443.95 422.7,441.73C424.56,441.49 426.43,441.35 428.3,441.18C427.83,438.46 427.7,435.76 427.72,433C427.81,390.87 427.68,348.73 427.83,306.6ZM471.01,300.77C466.33,301.15 461.64,301.14 456.95,301.38C447.91,302.26 439.08,304.03 430.17,305.71C430.38,350.89 430.1,396.08 430.3,441.26C436.91,441.04 443.51,441.06 450.11,441.69C453.2,402.78 480.55,367.65 516.79,353.72C522.61,351.54 528.59,349.94 534.64,348.56C534.79,335.27 534.82,321.96 534.69,308.67C526.74,307.28 519.06,304.61 511.06,303.4C504.86,302.54 499.19,301.21 492.98,301.24C485.59,301.27 478.41,300.14 471.01,300.77ZM513.05,551.21C507.98,564.64 499.37,577.18 488.11,586.15C471.95,599.36 451.11,606.41 430.22,605.31C430.26,640.36 430.11,675.42 430.32,710.47C446.4,713.87 462.53,716.21 479,715.72C488.54,716.07 497.91,714.85 507.33,713.52C507.72,712.23 508.1,710.93 508.46,709.63L511.04,708.76C511.83,709.02 512.61,709.28 513.4,709.54C513.78,710.38 514.16,711.22 514.53,712.05C521.34,711.2 528.14,709.45 534.76,707.62C534.64,659.07 534.78,610.49 534.73,561.95C528.2,559.17 521.92,555.5 515.8,551.93C514.89,551.67 513.98,551.42 513.05,551.21Z" style="fill:rgb(37,48,59);"/>
            </g>
            <g transform="matrix(6.12323e-17,1,-1,6.12323e-17,1015.19,51.5508)">
                <path d="M709.42,224.52C714.19,222.67 719.77,224.02 723.08,227.94C725.88,230.92 726.15,235.45 725.22,239.23C724.12,242.54 721.24,245.65 718.12,247.16C712.4,249.02 706.27,247.05 703.23,241.75C699.35,235.5 702.62,226.97 709.42,224.52Z" style="fill:rgb(242,128,122);fill-rule:nonzero;"/>
            </g>
            <g transform="matrix(6.12323e-17,1,-1,6.12323e-17,1015.19,51.5508)">
                <path d="M240.38,332.45C241.94,332.13 243.72,332.11 245.23,332.7C248.56,334.56 249.13,339.87 246.69,342.65C244.16,345.42 239.13,345.18 237.06,341.96C235.38,338.44 236.28,333.74 240.38,332.45Z" style="fill:rgb(242,128,122);fill-rule:nonzero;"/>
            </g>
            <g transform="matrix(6.12323e-17,1,-1,6.12323e-17,1015.19,51.5508)">
                <path d="M240.3,435.08C241.54,434.88 242.78,434.7 244.02,434.53C243.62,435.68 243.22,436.82 242.82,437.97C241.94,437.8 241.07,437.62 240.2,437.43C240.21,436.65 240.24,435.87 240.3,435.08Z" style="fill:rgb(212,209,177);fill-rule:nonzero;"/>
            </g>
            <g transform="matrix(6.12323e-17,1,-1,6.12323e-17,1015.19,51.5508)">
                <path d="M422.7,441.73C431.88,441.23 441.01,440.97 450.14,441.79C448.72,462.28 453.6,483.32 463.68,501.21C473.7,519.33 489.44,534 508.12,542.92C510.17,543.94 512.62,544.73 514.36,546.25C514.43,547.82 514.28,549.44 514.19,551.01C514.72,551.32 515.26,551.62 515.8,551.93C514.89,551.67 513.98,551.42 513.05,551.21C507.98,564.64 499.37,577.18 488.11,586.15C471.95,599.36 451.11,606.41 430.22,605.31L427.73,605.09C405.52,602.97 384.47,592.11 370.35,574.78C358.4,560.07 351.88,540.95 352.4,522C352.32,507.73 356.43,493.8 363.57,481.51C368.85,472.79 375.82,465.24 383.66,458.77C394.79,450.05 408.74,443.95 422.7,441.73Z" style="fill:rgb(242,128,122);fill-rule:nonzero;"/>
            </g>
            <g transform="matrix(6.12323e-17,1,-1,6.12323e-17,1015.19,51.5508)">
                <path d="M244.13,445.03C243.64,446.62 242.82,448.03 242.01,449.48C241.22,448.04 239.96,446.88 240.02,445.17C241.37,443.63 242.56,444.32 244.13,445.03Z" style="fill:rgb(212,209,177);fill-rule:nonzero;"/>
            </g>
            <g transform="matrix(6.12323e-17,1,-1,6.12323e-17,1015.19,51.5508)">
                <path d="M243.58,454.79C243.68,455.81 243.77,456.83 243.85,457.86C242.56,457.81 241.27,457.75 239.98,457.68C240.5,455.03 240.67,454.5 243.58,454.79Z" style="fill:rgb(212,209,177);fill-rule:nonzero;"/>
            </g>
            <g transform="matrix(6.12323e-17,1,-1,6.12323e-17,1015.19,51.5508)">
                <path d="M326.84,524.03C327.51,528.75 321.99,531.13 318.47,528.52C315.93,526.73 316.45,524.36 316.48,521.64C317.26,520.98 318.08,520.36 318.92,519.8C322.25,518.03 327.11,519.67 326.84,524.03Z" style="fill:rgb(37,48,59);fill-rule:nonzero;"/>
            </g>
            <g transform="matrix(6.12323e-17,1,-1,6.12323e-17,1015.19,51.5508)">
                <path d="M521.48,548.21C525.91,549.44 530.25,550.92 534.73,551.99C534.82,552.99 534.9,554 534.98,555C530.34,553 525.76,550.91 521.48,548.21Z" style="fill:white;fill-rule:nonzero;"/>
            </g>
            <g transform="matrix(6.12323e-17,1,-1,6.12323e-17,1015.19,51.5508)">
                <path d="M663.57,586.33L664.12,586.3C673.53,586.85 682.45,591.39 687.56,599.44C695.36,611.28 693.78,628.44 682.56,637.58C670.9,647.76 652.71,646.14 641.62,635.9C640.82,635.03 640.05,634.13 639.33,633.19C635.91,627.88 633.15,622.5 633.25,616C632.75,605.98 638.04,596.74 646.17,591.13C651.39,587.46 657.28,586.31 663.57,586.33Z" style="fill:rgb(242,128,122);fill-rule:nonzero;"/>
            </g>
            <g transform="matrix(6.12323e-17,1,-1,6.12323e-17,1015.19,51.5508)">
                <path d="M513.55,617.49C516.19,619.46 512.67,623.84 510.03,621.95C507.95,621.16 508.61,619.37 508.31,617.58C510.27,617.12 511.77,615.88 513.55,617.49Z" style="fill:rgb(37,48,59);fill-rule:nonzero;"/>
            </g>
            <g transform="matrix(6.12323e-17,1,-1,6.12323e-17,1015.19,51.5508)">
                <path d="M511.18,635.55C512.53,636.27 514.96,636.94 514.39,638.95C514.22,641.72 510.14,642.75 508.58,640.39C508.26,639.29 508.35,638.05 508.34,636.91C509.28,636.44 510.23,635.98 511.18,635.55Z" style="fill:rgb(37,48,59);fill-rule:nonzero;"/>
            </g>
            <g transform="matrix(6.12323e-17,1,-1,6.12323e-17,1015.19,51.5508)">
                <path d="M510.96,654.52C511.87,654.93 512.79,655.35 513.7,655.76C513.71,657.13 513.72,658.5 513.71,659.88C512.41,660.14 511.09,660.35 509.77,660.51C508.01,659.34 508.35,657.8 508.23,655.96C509.14,655.47 510.05,654.99 510.96,654.52Z" style="fill:rgb(37,48,59);fill-rule:nonzero;"/>
            </g>
            <g transform="matrix(6.12323e-17,1,-1,6.12323e-17,1015.19,51.5508)">
                <path d="M318.22,664.25C322.51,663.24 327.82,664.01 331.56,666.41C337.67,670.62 341.81,678.37 339.55,685.83C337.46,694.45 328.81,700.52 319.98,699.16C311.94,698 305.14,691.27 304.66,683.02C303.73,674.32 309.85,666.29 318.22,664.25Z" style="fill:rgb(242,128,122);fill-rule:nonzero;"/>
            </g>
            <g transform="matrix(6.12323e-17,1,-1,6.12323e-17,1015.19,51.5508)">
                <path d="M513.13,673.26C513.58,674.17 514.04,675.08 514.5,675.99C514.09,676.74 513.68,677.48 513.28,678.23C512.51,678.6 511.74,678.96 510.97,679.33C510.13,678.93 509.29,678.54 508.45,678.14C508.47,676.63 508.5,675.13 508.61,673.62C510.11,673.45 511.62,673.35 513.13,673.26Z" style="fill:rgb(37,48,59);fill-rule:nonzero;"/>
            </g>
            <g transform="matrix(6.12323e-17,1,-1,6.12323e-17,1015.19,51.5508)">
                <path d="M508.46,692.78C509.65,692.2 510.87,691.66 512.1,691.17C512.91,692.06 513.73,692.94 514.55,693.81C514.07,695.1 513.58,696.38 513.09,697.66C511.43,697.32 509.91,697.36 508.56,696.18C508.08,694.99 508.06,694 508.46,692.78Z" style="fill:rgb(37,48,59);fill-rule:nonzero;"/>
            </g>
            <g transform="matrix(6.12323e-17,1,-1,6.12323e-17,1015.19,51.5508)">
                <path d="M513.25,726.31C513.92,727.91 514.62,729.23 514.22,731.02C512.84,732.03 511.34,732.31 509.74,732.85C509.06,731.17 508.48,729.49 508.17,727.7C509.84,727 511.44,726.55 513.25,726.31Z" style="fill:rgb(37,48,59);fill-rule:nonzero;"/>
            </g>
            <g transform="matrix(6.12323e-17,1,-1,6.12323e-17,1015.19,51.5508)">
                <path d="M317.43,733.59C322.69,732.01 328.33,733.26 332.86,736.21C338.25,739.93 341.21,746.52 340.5,753.03C339.85,762.63 330.7,770.75 320.99,769.51C311,768.93 302.93,760.09 303.84,750.01C304.26,742.23 310.05,735.66 317.43,733.59Z" style="fill:rgb(242,128,122);fill-rule:nonzero;"/>
            </g>
            <g transform="matrix(6.12323e-17,1,-1,6.12323e-17,1015.19,51.5508)">
                <path d="M509.98,738.39C511.55,738.41 513.13,739.12 514.63,739.55C515.01,742.27 515.53,744.39 513.31,746.5C511.21,747.12 508.34,747.04 507.2,744.84C505.71,742.35 507.21,739.08 509.98,738.39Z" style="fill:rgb(37,48,59);fill-rule:nonzero;"/>
            </g>
            <g transform="matrix(6.12323e-17,1,-1,6.12323e-17,1015.19,51.5508)">
                <path d="M510.08,755.73C512.23,755.29 513.19,756.78 514.83,757.8C513.82,759.14 513.34,762 511.17,761.65C507.83,761.69 507.23,756.97 510.08,755.73Z" style="fill:rgb(37,48,59);fill-rule:nonzero;"/>
            </g>
            <g transform="matrix(6.12323e-17,1,-1,6.12323e-17,1015.19,51.5508)">
                <path d="M514.35,777.07C515.1,778.98 512.31,779.76 511.16,780.63C510.23,780.1 509.3,779.59 508.36,779.07C508.4,777.94 508.42,776.85 508.58,775.73C510.39,773.55 513.9,774.17 514.35,777.07Z" style="fill:rgb(37,48,59);fill-rule:nonzero;"/>
            </g>
            <g transform="matrix(6.12323e-17,1,-1,6.12323e-17,1015.19,51.5508)">
                <path d="M513.03,793.34C513.64,794.27 514.24,795.19 514.84,796.12C513.65,797.15 512.86,799.09 511.03,798.78C508.61,799 507.55,795.7 508.91,794.09C509.53,792.71 511.82,793.33 513.03,793.34Z" style="fill:rgb(37,48,59);fill-rule:nonzero;"/>
            </g>
            <g transform="matrix(6.12323e-17,1,-1,6.12323e-17,1015.19,51.5508)">
                <path d="M513.5,812.48C513.61,814.2 513.66,815.93 513.66,817.66C511.91,817.68 510.17,817.62 508.42,817.51C508.42,815.9 508.42,814.29 508.55,812.68C510.19,812.54 511.84,812.5 513.5,812.48Z" style="fill:rgb(37,48,59);fill-rule:nonzero;"/>
            </g>
            <g transform="matrix(6.12323e-17,1,-1,6.12323e-17,1015.19,51.5508)">
                <path d="M513.57,831.57C513.67,833.24 513.66,834.9 513.63,836.56C511.87,836.63 510.12,836.63 508.36,836.57C508.37,835.24 508.32,833.85 508.53,832.53C509.73,831.08 511.9,831.66 513.57,831.57Z" style="fill:rgb(37,48,59);fill-rule:nonzero;"/>
            </g>
            <g transform="matrix(6.12323e-17,1,-1,6.12323e-17,1015.19,51.5508)">
                <path d="M513.4,850.58C513.62,852.14 513.76,853.71 513.88,855.29C512.9,855.7 511.92,856.1 510.94,856.51C510.07,856.04 509.19,855.58 508.32,855.11C508.38,853.96 508.41,852.84 508.6,851.71C509.82,849.99 511.59,850.67 513.4,850.58Z" style="fill:rgb(37,48,59);fill-rule:nonzero;"/>
            </g>
            <g transform="matrix(6.12323e-17,1,-1,6.12323e-17,1015.19,51.5508)">
                <path d="M511.04,868.56C512.98,868.23 513.57,870.41 514.55,871.62C514,872.6 513.46,873.59 512.92,874.57C511.93,874.48 510.94,874.36 509.95,874.2C507.11,873.26 507.77,868.11 511.04,868.56Z" style="fill:rgb(37,48,59);fill-rule:nonzero;"/>
            </g>
            <g transform="matrix(6.12323e-17,1,-1,6.12323e-17,1015.19,51.5508)">
                <path d="M510.95,887.23C513.72,888.58 513.91,889.43 514.78,892.3C512.38,892.87 510.53,894.45 508.45,892.19C507.8,889.46 509.03,888.83 510.95,887.23Z" style="fill:rgb(37,48,59);fill-rule:nonzero;"/>
            </g>
            <g transform="matrix(6.12323e-17,1,-1,6.12323e-17,1015.19,51.5508)">
                <path d="M425.44,889.53C428.36,888.78 431.62,888.84 433.93,891.02C437.47,893.97 437.72,900.22 434.34,903.37C430.39,907.52 422.56,906.02 420.47,900.64C418.46,896.29 420.97,891.02 425.44,889.53Z" style="fill:rgb(37,48,59);fill-rule:nonzero;"/>
            </g>
            <g transform="matrix(6.12323e-17,1,-1,6.12323e-17,1015.19,51.5508)">
                <path d="M510.14,906.81C512.04,906.18 513.44,907.92 514.93,908.79C514.35,909.96 513.67,911.06 512.89,912.09C511.3,913 508.72,912.73 508.3,910.66C507.9,908.73 508.34,907.69 510.14,906.81Z" style="fill:rgb(37,48,59);fill-rule:nonzero;"/>
            </g>
            <g transform="matrix(6.12323e-17,1,-1,6.12323e-17,1015.19,51.5508)">
                <path d="M512.92,925.36C513.47,926.17 514.02,926.98 514.57,927.8C514.07,928.77 513.58,929.74 513.09,930.71C511.15,930.45 508.21,931 508.5,928.06C508.36,925.43 511,925.42 512.92,925.36Z" style="fill:rgb(37,48,59);fill-rule:nonzero;"/>
            </g>
            <g transform="matrix(6.12323e-17,1,-1,6.12323e-17,1015.19,51.5508)">
                <path d="M534.7,984.77C535.54,984.62 536.38,984.49 537.23,984.35C539.76,986.66 542.26,988.18 542.37,992C542.5,998.3 534.77,1002.04 529.91,998.11C526.8,995.89 526.69,991.92 527.73,988.57C529.25,985.75 531.79,985.36 534.7,984.77Z" style="fill:rgb(242,128,122);fill-rule:nonzero;"/>
            </g>
        </g>
    </g>
</svg>
