<svg xmlns="http://www.w3.org/2000/svg" xml:space="preserve" style="fill-rule:evenodd;clip-rule:evenodd;stroke-linejoin:round;stroke-miterlimit:2" viewBox="0 0 1335 747"><path d="M0 0h2048v1536H0z" style="fill:none" transform="scale(.6515 .4863)"/><path d="M433.22 70.91c.81 2.98-1.16 4.22-2.82 6.24-.28 5.26-.16 10.58-.18 15.85-.03 31.32.04 62.65-.05 93.97-.79-.25-1.59-.48-2.39-.69-.14-36.3.08-72.59-.14-108.88-1.28-.59-2.84-.99-3.91-1.91-1.19-1.86-1.81-4.19-.38-6.1 2.28-3.7 8.83-2.96 9.87 1.52Z" style="fill:#25303b;fill-rule:nonzero" transform="matrix(0 1.31429 -1.31429 0 1359.022 -263.116)"/><path d="M525.48 68.72c6.11-1.26 12.45-1.27 18.55.04 15.85 3.24 29.55 15.09 34.63 30.51 6.44 17.19 1.25 37.77-12.56 49.86-9.04 8.88-21.5 13.16-34.11 12.26-14.94-.89-28.83-8.9-36.77-21.64-5.26-8.95-7.74-19.4-6.53-29.75 1.65-19.71 17.34-37.49 36.79-41.28ZM404.03 183.99c8.14-1.19 15.88.33 23.75 2.29.8.21 1.6.44 2.39.69 14.89 5.35 26.74 17.53 32.23 32.3 3.08 8.99 4.13 19.06 2.15 28.41-.54 2.45-1.01 4.93-1.51 7.39-1.42 6.16-5.44 11.86-9.29 16.77-6.08 7.68-14.35 12.96-23.44 16.41-.84.29-1.7.56-2.56.8-16.47 4.21-34.34 2.43-48.65-7.15-9.52-6.77-17.25-15.75-21.12-26.9-3.04-8.43-3.12-17.15-2.38-25.99 2.21-14.17 10.42-26.09 21.56-34.83 7.98-5.86 16.99-9.27 26.87-10.19Z" style="fill:#d4d1b1;fill-rule:nonzero" transform="matrix(0 1.31429 -1.31429 0 1359.022 -263.116)"/><path d="m534.76 214.36 2.49.05c-.01 6.95-.07 13.9.04 20.85 35.08 1.01 70.48 11.48 100.19 30.25 12.53 8.13 24.25 17.62 34.6 28.41 20.73 20.83 36.64 46.35 45.75 74.32 5.78 18.25 9.33 37.6 9.52 56.76.81 39.01-13.63 79.32-40.63 107.74-3.59 3.82-7.6 7.09-11.32 10.79-2.1 14.58-6.1 28.99-11.28 42.77l-.55.03c5.57-13.6 9.03-28.24 11.44-42.72-22.72 17.77-51.18 28.35-80.02 29.42-19.77 1.02-39.52-1.88-57.66-9.99-.32 47.85.01 95.72-.17 143.58 9.02-2.31 17.67-6.32 26.21-9.97 5.77-2.36 10.98-5.57 16.41-8.59 18.93-10.81 35.59-24.94 50.15-41.11 3.33-4.01 6.39-8.21 10.06-11.94-.21-.61-.43-1.22-.66-1.82a39.5 39.5 0 0 0 2.29 2.71l-1.18-.87c-3.69 3.88-6.92 8.11-10.31 12.24-21.07 23.79-47.6 42.56-77.17 54.25-5.19 2-10.11 4.25-15.59 5.4-.14 3.03-.16 6.05-.16 9.08 0 89.45-.02 178.9.02 268.35-.85.14-1.69.27-2.53.42.06-92.23-.02-184.48.03-276.71-6.55 1.92-13.19 3.34-19.91 4.57-1.56 1.14-2.47 2.41-4.6 1.94-5.63-.81-10.61.78-16.27 1.03-7.33.96-14.59.54-21.95.64-14.12-.23-27.9-2.55-41.71-5.31-.14 47.69 0 95.38-.09 143.07-.06 4.36.53 8.29-1.2 12.44-1.87-3.79-1.14-7.39-1.24-11.44-.01-48.42.07-96.85-.04-145.26-6.02-.86-11.3-2.96-17.1-4.83-29.5-10.57-56.41-27.81-78.53-50-12.45-12-23.24-25.77-32.16-40.59-14.37-23.86-22.89-50.53-26.79-78.04-1.88-9.4-1.42-18.76-1.81-28.27.42-7.37-.13-14.69 1.02-21.94 3.24-29.82 12.66-59.21 28-85.03 6.26-11.36 14.5-21.93 22.83-31.84 4.71-4.75 8.45-10.11 13.79-14.21 12.44-11.83 26.45-21.84 41.45-30.16 7.91-3.96 15.47-8.17 23.84-11.13 8.2-2.99 16.72-6.39 25.42-7.47.16-5.73.09-11.45.07-17.18.86-.24 1.72-.51 2.56-.8-.14 5.51-.07 11.01-.22 16.51 5.22.05 9.76-1.57 14.9-2.2 5.95-.76 12.07-2.01 18.02-1.9 6.36.05 12.61-.75 18.98-.22 6.2.48 11.99-.18 18.09.87 5.71.97 11.44 1.53 17.09 2.86 5.89 1.21 11.59 3.02 17.52 3.98.1-22.21.05-44.43.05-66.65-18.59-.04-37.97 1.88-55.7 7.68-5.44 1.75-10.81 3.51-16 5.89.5-2.46.97-4.94 1.51-7.39 7.9-3.8 16.72-5.92 25.23-7.91 14.71-3.56 29.74-4.74 44.85-4.57.12-6.95.07-13.9.13-20.84Zm2.43 27.2c.05 35.42.05 71.03.07 106.45 11.21-1.77 22.44-2.46 33.72-.84 17.4 2.3 34.02 9.22 47.84 20.04 17.95 13.86 32.34 33.72 38.17 55.78 6.3 21.21 4.4 44.95-3.46 65.5-7.15 17.82-19.22 33.92-34.79 45.25-12.35 9.3-26.89 15.3-41.98 18.41-13.12 2.66-26.41 2.4-39.58.35 0 1.22 0 2.45.01 3.67 13.88 6.1 28.64 9.8 43.81 10.42 27.15 1.41 55.01-5.01 78.2-19.37 6.17-3.9 12.21-8.23 17.39-13.38.01-4.95.02-9.87.66-14.78 1.3-14.3-.09-27.89-1.72-42.06-2.08-12.92-4.78-25.69-8.94-38.12-9.68-27.11-21.65-52.66-41.98-73.51-6.38-6.22-12.45-13.04-19.48-18.49-8.72-7.08-17.72-14.07-27.52-19.59-12.43-7.11-25.79-13.53-39.76-16.92 2.66.22 5.06.71 7.57 1.61 15.03 5.21 29.4 12.46 42.58 21.37 11.61 8.22 22.66 16.83 32.45 27.2 15.66 14.85 27.32 32.87 36.07 52.51 3.83 7.26 6.41 14.96 9.32 22.61 4.99 13.76 8.01 27.86 10.27 42.29 1.35 12.69 2.95 25.41 1.84 38.17-.81 5.86-.61 11.67-.87 17.56 16.72-15.71 28.82-35.94 36.09-57.62 6.58-18.75 8.41-39.49 7.48-59.24-1.98-32.37-12.26-64.08-30.35-91.05-11.6-16.64-24.82-31.74-41.01-44.07-15.86-12.73-33.98-22.41-53.2-29.01-18.93-6.69-38.82-10.56-58.9-11.14ZM427.83 306.6c-10.3 1.49-20.69 5.7-30.38 9.44-20.17 8.6-38.93 20.22-55.36 34.75-4.31 4.26-9.21 7.54-12.95 12.38-10.95 11.94-21.22 24.93-29.06 39.15-9.58 16.04-16.56 33.78-21.42 51.79-3.75 15.18-6.52 30.29-6.55 45.97-.89 9.03.22 17.9.27 26.94 1.88 17.64 5.55 35.08 11.31 51.87 2.64 7.51 5.88 14.62 9.16 21.86 12.54 25.26 30.57 47.17 52.04 65.35 13.35 11.84 28.19 21.19 44.06 29.26 12.38 5.92 25.31 11.22 38.81 14.01-.02-34.76.06-69.52-.03-104.28-22.21-2.12-43.26-12.98-57.38-30.31-11.95-14.71-18.47-33.83-17.95-52.78-.08-14.27 4.03-28.2 11.17-40.49 5.28-8.72 12.25-16.27 20.09-22.74 11.13-8.72 25.08-14.82 39.04-17.04 1.86-.24 3.73-.38 5.6-.55-.47-2.72-.6-5.42-.58-8.18.09-42.13-.04-84.27.11-126.4Zm43.18-5.83c-4.68.38-9.37.37-14.06.61-9.04.88-17.87 2.65-26.78 4.33.21 45.18-.07 90.37.13 135.55 6.61-.22 13.21-.2 19.81.43 3.09-38.91 30.44-74.04 66.68-87.97 5.82-2.18 11.8-3.78 17.85-5.16.15-13.29.18-26.6.05-39.89-7.95-1.39-15.63-4.06-23.63-5.27-6.2-.86-11.87-2.19-18.08-2.16-7.39.03-14.57-1.1-21.97-.47Zm42.04 250.44c-5.07 13.43-13.68 25.97-24.94 34.94-16.16 13.21-37 20.26-57.89 19.16.04 35.05-.11 70.11.1 105.16 16.08 3.4 32.21 5.74 48.68 5.25 9.54.35 18.91-.87 28.33-2.2.39-1.29.77-2.59 1.13-3.89l2.58-.87c.79.26 1.57.52 2.36.78.38.84.76 1.68 1.13 2.51 6.81-.85 13.61-2.6 20.23-4.43-.12-48.55.02-97.13-.03-145.67-6.53-2.78-12.81-6.45-18.93-10.02-.91-.26-1.82-.51-2.75-.72Z" style="fill:#25303b" transform="matrix(0 1.31429 -1.31429 0 1359.022 -263.116)"/><path d="M709.42 224.52c4.77-1.85 10.35-.5 13.66 3.42 2.8 2.98 3.07 7.51 2.14 11.29-1.1 3.31-3.98 6.42-7.1 7.93-5.72 1.86-11.85-.11-14.89-5.41-3.88-6.25-.61-14.78 6.19-17.23ZM240.38 332.45c1.56-.32 3.34-.34 4.85.25 3.33 1.86 3.9 7.17 1.46 9.95-2.53 2.77-7.56 2.53-9.63-.69-1.68-3.52-.78-8.22 3.32-9.51Z" style="fill:#f2807a;fill-rule:nonzero" transform="matrix(0 1.31429 -1.31429 0 1359.022 -263.116)"/><path d="M240.3 435.08c1.24-.2 2.48-.38 3.72-.55-.4 1.15-.8 2.29-1.2 3.44-.88-.17-1.75-.35-2.62-.54.01-.78.04-1.56.1-2.35Z" style="fill:#d4d1b1;fill-rule:nonzero" transform="matrix(0 1.31429 -1.31429 0 1359.022 -263.116)"/><path d="M422.7 441.73c9.18-.5 18.31-.76 27.44.06-1.42 20.49 3.46 41.53 13.54 59.42 10.02 18.12 25.76 32.79 44.44 41.71 2.05 1.02 4.5 1.81 6.24 3.33.07 1.57-.08 3.19-.17 4.76.53.31 1.07.61 1.61.92-.91-.26-1.82-.51-2.75-.72-5.07 13.43-13.68 25.97-24.94 34.94-16.16 13.21-37 20.26-57.89 19.16l-2.49-.22c-22.21-2.12-43.26-12.98-57.38-30.31-11.95-14.71-18.47-33.83-17.95-52.78-.08-14.27 4.03-28.2 11.17-40.49 5.28-8.72 12.25-16.27 20.09-22.74 11.13-8.72 25.08-14.82 39.04-17.04Z" style="fill:#f2807a;fill-rule:nonzero" transform="matrix(0 1.31429 -1.31429 0 1359.022 -263.116)"/><path d="M244.13 445.03c-.49 1.59-1.31 3-2.12 4.45-.79-1.44-2.05-2.6-1.99-4.31 1.35-1.54 2.54-.85 4.11-.14ZM243.58 454.79c.1 1.02.19 2.04.27 3.07-1.29-.05-2.58-.11-3.87-.18.52-2.65.69-3.18 3.6-2.89Z" style="fill:#d4d1b1;fill-rule:nonzero" transform="matrix(0 1.31429 -1.31429 0 1359.022 -263.116)"/><path d="M326.84 524.03c.67 4.72-4.85 7.1-8.37 4.49-2.54-1.79-2.02-4.16-1.99-6.88.78-.66 1.6-1.28 2.44-1.84 3.33-1.77 8.19-.13 7.92 4.23Z" style="fill:#25303b;fill-rule:nonzero" transform="matrix(0 1.31429 -1.31429 0 1359.022 -263.116)"/><path d="M521.48 548.21c4.43 1.23 8.77 2.71 13.25 3.78.09 1 .17 2.01.25 3.01-4.64-2-9.22-4.09-13.5-6.79Z" style="fill:#fff;fill-rule:nonzero" transform="matrix(0 1.31429 -1.31429 0 1359.022 -263.116)"/><path d="m663.57 586.33.55-.03c9.41.55 18.33 5.09 23.44 13.14 7.8 11.84 6.22 29-5 38.14-11.66 10.18-29.85 8.56-40.94-1.68a39.5 39.5 0 0 1-2.29-2.71c-3.42-5.31-6.18-10.69-6.08-17.19-.5-10.02 4.79-19.26 12.92-24.87 5.22-3.67 11.11-4.82 17.4-4.8Z" style="fill:#f2807a;fill-rule:nonzero" transform="matrix(0 1.31429 -1.31429 0 1359.022 -263.116)"/><path d="M513.55 617.49c2.64 1.97-.88 6.35-3.52 4.46-2.08-.79-1.42-2.58-1.72-4.37 1.96-.46 3.46-1.7 5.24-.09ZM511.18 635.55c1.35.72 3.78 1.39 3.21 3.4-.17 2.77-4.25 3.8-5.81 1.44-.32-1.1-.23-2.34-.24-3.48.94-.47 1.89-.93 2.84-1.36ZM510.96 654.52c.91.41 1.83.83 2.74 1.24.01 1.37.02 2.74.01 4.12-1.3.26-2.62.47-3.94.63-1.76-1.17-1.42-2.71-1.54-4.55.91-.49 1.82-.97 2.73-1.44Z" style="fill:#25303b;fill-rule:nonzero" transform="matrix(0 1.31429 -1.31429 0 1359.022 -263.116)"/><path d="M318.22 664.25c4.29-1.01 9.6-.24 13.34 2.16 6.11 4.21 10.25 11.96 7.99 19.42-2.09 8.62-10.74 14.69-19.57 13.33-8.04-1.16-14.84-7.89-15.32-16.14-.93-8.7 5.19-16.73 13.56-18.77Z" style="fill:#f2807a;fill-rule:nonzero" transform="matrix(0 1.31429 -1.31429 0 1359.022 -263.116)"/><path d="M513.13 673.26c.45.91.91 1.82 1.37 2.73-.41.75-.82 1.49-1.22 2.24-.77.37-1.54.73-2.31 1.1-.84-.4-1.68-.79-2.52-1.19.02-1.51.05-3.01.16-4.52 1.5-.17 3.01-.27 4.52-.36ZM508.46 692.78c1.19-.58 2.41-1.12 3.64-1.61.81.89 1.63 1.77 2.45 2.64-.48 1.29-.97 2.57-1.46 3.85-1.66-.34-3.18-.3-4.53-1.48-.48-1.19-.5-2.18-.1-3.4ZM513.25 726.31c.67 1.6 1.37 2.92.97 4.71-1.38 1.01-2.88 1.29-4.48 1.83-.68-1.68-1.26-3.36-1.57-5.15 1.67-.7 3.27-1.15 5.08-1.39Z" style="fill:#25303b;fill-rule:nonzero" transform="matrix(0 1.31429 -1.31429 0 1359.022 -263.116)"/><path d="M317.43 733.59c5.26-1.58 10.9-.33 15.43 2.62 5.39 3.72 8.35 10.31 7.64 16.82-.65 9.6-9.8 17.72-19.51 16.48-9.99-.58-18.06-9.42-17.15-19.5.42-7.78 6.21-14.35 13.59-16.42Z" style="fill:#f2807a;fill-rule:nonzero" transform="matrix(0 1.31429 -1.31429 0 1359.022 -263.116)"/><path d="M509.98 738.39c1.57.02 3.15.73 4.65 1.16.38 2.72.9 4.84-1.32 6.95-2.1.62-4.97.54-6.11-1.66-1.49-2.49.01-5.76 2.78-6.45ZM510.08 755.73c2.15-.44 3.11 1.05 4.75 2.07-1.01 1.34-1.49 4.2-3.66 3.85-3.34.04-3.94-4.68-1.09-5.92ZM514.35 777.07c.75 1.91-2.04 2.69-3.19 3.56-.93-.53-1.86-1.04-2.8-1.56.04-1.13.06-2.22.22-3.34 1.81-2.18 5.32-1.56 5.77 1.34ZM513.03 793.34c.61.93 1.21 1.85 1.81 2.78-1.19 1.03-1.98 2.97-3.81 2.66-2.42.22-3.48-3.08-2.12-4.69.62-1.38 2.91-.76 4.12-.75ZM513.5 812.48c.11 1.72.16 3.45.16 5.18-1.75.02-3.49-.04-5.24-.15 0-1.61 0-3.22.13-4.83 1.64-.14 3.29-.18 4.95-.2ZM513.57 831.57c.1 1.67.09 3.33.06 4.99-1.76.07-3.51.07-5.27.01.01-1.33-.04-2.72.17-4.04 1.2-1.45 3.37-.87 5.04-.96ZM513.4 850.58c.22 1.56.36 3.13.48 4.71-.98.41-1.96.81-2.94 1.22-.87-.47-1.75-.93-2.62-1.4.06-1.15.09-2.27.28-3.4 1.22-1.72 2.99-1.04 4.8-1.13ZM511.04 868.56c1.94-.33 2.53 1.85 3.51 3.06-.55.98-1.09 1.97-1.63 2.95-.99-.09-1.98-.21-2.97-.37-2.84-.94-2.18-6.09 1.09-5.64ZM510.95 887.23c2.77 1.35 2.96 2.2 3.83 5.07-2.4.57-4.25 2.15-6.33-.11-.65-2.73.58-3.36 2.5-4.96ZM425.44 889.53c2.92-.75 6.18-.69 8.49 1.49 3.54 2.95 3.79 9.2.41 12.35-3.95 4.15-11.78 2.65-13.87-2.73-2.01-4.35.5-9.62 4.97-11.11ZM510.14 906.81c1.9-.63 3.3 1.11 4.79 1.98a20.63 20.63 0 0 1-2.04 3.3c-1.59.91-4.17.64-4.59-1.43-.4-1.93.04-2.97 1.84-3.85ZM512.92 925.36c.55.81 1.1 1.62 1.65 2.44-.5.97-.99 1.94-1.48 2.91-1.94-.26-4.88.29-4.59-2.65-.14-2.63 2.5-2.64 4.42-2.7Z" style="fill:#25303b;fill-rule:nonzero" transform="matrix(0 1.31429 -1.31429 0 1359.022 -263.116)"/><path d="M534.7 984.77c.84-.15 1.68-.28 2.53-.42 2.53 2.31 5.03 3.83 5.14 7.65.13 6.3-7.6 10.04-12.46 6.11-3.11-2.22-3.22-6.19-2.18-9.54 1.52-2.82 4.06-3.21 6.97-3.8Z" style="fill:#f2807a;fill-rule:nonzero" transform="matrix(0 1.31429 -1.31429 0 1359.022 -263.116)"/></svg>
